<svg xmlns="http://www.w3.org/2000/svg" fill="none" viewBox="0 0 1949 552">
  <style>
    @media (prefers-color-scheme: dark) {
      #background {
        fill: transparent;
      }

      .text {
        fill: #c9d1d9;
      }
    }
  </style>
  <path id="background" fill="#fff" d="M0 0h1949v552H0z" />
  <path
    stroke="#FC4928"
    stroke-width="2"
    d="M1681.4 485a101.4 101.4 0 0 1-124.1-74.2 93.8 93.8 0 0 1 2.2-49l2.4-7.4 6.5 4.8a164 164 0 0 0 50 25l4.8 1.4-.5 4.8a28.6 28.6 0 0 0 5.2 19 30.6 30.6 0 0 0 32.8 12.1c2.7-.7 5.4-1.9 7.8-3.4l127.7-81.4a26.6 26.6 0 0 0 11.8-29 30.6 30.6 0 0 0-37.4-22.4 28 28 0 0 0-7.8 3.4l-48.8 31.1c-8 5.1-16.8 9-26 11.4a101.4 101.4 0 0 1-124-74.3 94 94 0 0 1-.9-37.1 88.3 88.3 0 0 1 39.9-59l127.7-81.5a93 93 0 0 1 26-11.4 101.4 101.4 0 0 1 124 74.3 93.8 93.8 0 0 1-2.2 49l-2.4 7.4-6.5-4.8a164.6 164.6 0 0 0-50-25l-4.8-1.4.5-4.8c.6-6.7-1.3-13.4-5.2-19a30.6 30.6 0 0 0-32.8-12.1c-2.7.7-5.4 1.9-7.8 3.4l-127.7 81.4a26.7 26.7 0 0 0-11.8 29 30.6 30.6 0 0 0 37.4 22.4 29 29 0 0 0 7.9-3.4l48.7-31.1a93 93 0 0 1 26-11.4 101.5 101.5 0 0 1 124 74.3 94 94 0 0 1 .9 37.1 88.3 88.3 0 0 1-39.9 59l-127.7 81.5a93 93 0 0 1-26 11.4m236.8-410.3c-51-73-151.5-94.5-224.3-48.2L1566.1 108a146.6 146.6 0 0 0-66.2 98.2c-6 33.8-.7 68.7 15.2 99.1a146.9 146.9 0 0 0-21.9 54.8 156.2 156.2 0 0 0 26.7 118.1c51 73 151.5 94.5 224.2 48.2L1872 445a146.5 146.5 0 0 0 66.2-98.2c6-33.8.7-68.7-15.2-99.1a146.9 146.9 0 0 0 21.9-54.8A156.2 156.2 0 0 0 1918 74.8"
  />
  <path
    class="text"
    fill="#444"
    d="M18.3 329.6a12.8 12.8 0 0 1-11.4-5.8 18 18 0 0 1-2.6-6 28.5 28.5 0 0 1 0-13.3 18 18 0 0 1 2.6-6 13 13 0 0 1 4.5-4.2c2-1 4.2-1.6 6.9-1.6 2.2 0 4 .3 5.5 1a11.6 11.6 0 0 1 6 5.5l-4 2a14 14 0 0 0-1.8-2.3 7.1 7.1 0 0 0-2.4-1.5c-1-.4-2-.6-3.3-.6-2 0-3.6.5-4.9 1.3-1.3.9-2.3 2-3.1 3.4-.8 1.4-1.4 3-1.7 4.7a25 25 0 0 0 0 10.2c.4 1.7 1 3.2 1.9 4.6a8.6 8.6 0 0 0 7.8 4.5c2 0 3.5-.5 4.7-1.3a11 11 0 0 0 3-3.3l4 1.5a13 13 0 0 1-2.4 3.6c-1 1.1-2.4 2-4 2.6-1.4.7-3.3 1-5.3 1Zm21.6 9.3 4-10.6-9.7-25.4h4.5l6.4 17.8a17 17 0 0 1 .9 2.5 66 66 0 0 1 .8-2.5l6.6-17.8h4.5l-13.5 36h-4.5Zm35-9.3c-1.3 0-2.4-.2-3.5-.7-1-.4-2.1-1.2-3.2-2.1v2.2h-4.4v-34.7l4.4-2.1v13c.9-1 1.8-1.6 3-2.1a10 10 0 0 1 9.3.9c1.6 1 2.9 2.7 3.8 4.7.8 2 1.3 4.5 1.3 7.2 0 4.4-1 7.7-2.8 10.1a9.4 9.4 0 0 1-7.9 3.6Zm-.6-4.1c2.2 0 3.8-.8 5-2.5 1.2-1.6 1.7-4 1.7-7 0-3.2-.5-5.5-1.7-7.1a5.7 5.7 0 0 0-5-2.5c-1.2 0-2.3.3-3.5 1a7 7 0 0 0-2.6 2.5v12c.7 1.1 1.5 2 2.6 2.6 1.1.7 2.3 1 3.5 1Zm29 4.1A10.7 10.7 0 0 1 93 323c-1-2-1.4-4.4-1.4-7 0-3 .5-5.4 1.5-7.4s2.3-3.6 4-4.7a12 12 0 0 1 11.5-.2c1.6.8 2.9 2.2 3.9 4 1 1.8 1.4 4.2 1.4 7a23.3 23.3 0 0 1-.1 3H96.2c.2 1.7.6 3 1.2 4.2a7.4 7.4 0 0 0 2.4 2.8 6 6 0 0 0 3.6 1 7.9 7.9 0 0 0 5.7-2.4l2.6 3a12 12 0 0 1-8.4 3.3ZM96.2 314h13.4a10 10 0 0 0-.8-4 6 6 0 0 0-2.1-2.7c-1-.7-2-1-3.4-1a7 7 0 0 0-4.9 1.8c-1.3 1.3-2 3.2-2.2 5.9Zm25 15.1v-26h4.4v3.4a6.8 6.8 0 0 1 2.5-3c1-.7 2.3-1 3.7-1 1.6 0 3 .4 4 1.3l-.7 4.1c-.5-.4-1.1-.6-1.7-.8-.6-.2-1.3-.3-2-.3a5 5 0 0 0-3 1c-.9.6-1.6 1.5-2 2.6a8.4 8.4 0 0 0-.8 4V329h-4.4Zm19.5 0v-26h4.5v2.6a7 7 0 0 1 2.9-2.5c1-.5 2.4-.8 3.8-.8 3.2 0 5.5 1 7 3 1.6 1.8 2.3 4.7 2.3 8.7v15h-4.4v-15.8c0-2.2-.5-3.8-1.5-5a5 5 0 0 0-4.1-1.8c-2 0-3.5.6-4.5 1.7s-1.5 2.8-1.5 5V329h-4.5Zm39.6.6A10.7 10.7 0 0 1 170 323c-1-2-1.4-4.4-1.4-7 0-3 .5-5.4 1.5-7.4s2.3-3.6 4-4.7a12 12 0 0 1 11.5-.2c1.6.8 2.9 2.2 3.9 4 1 1.8 1.4 4.2 1.4 7a23.3 23.3 0 0 1-.1 3h-17.7c.2 1.7.6 3 1.2 4.2a7.4 7.4 0 0 0 2.4 2.8 6 6 0 0 0 3.6 1 7.9 7.9 0 0 0 5.7-2.4l2.6 3a12 12 0 0 1-8.4 3.3Zm-7.1-15.7h13.4a10 10 0 0 0-.8-4 6 6 0 0 0-2.1-2.7c-1-.7-2-1-3.4-1a7 7 0 0 0-4.9 1.8c-1.3 1.3-2 3.2-2.2 5.9Zm31.2 15.7c-1.8 0-3.1-.5-4-1.6-1-1-1.5-2.6-1.5-4.6v-16.6h-4.2V303h4.2v-8.6l4.4-2.1V303h6.5v4h-6.5v15c0 1.3.3 2.2.7 2.7.4.6 1.1.9 2 .9a8 8 0 0 0 4-1.4l-.6 4.3-2.4 1-2.6.2Zm11.1-.6v-26h4.4v26h-4.4Zm2.2-30.8a2.7 2.7 0 0 1-2.8-2.8 2.8 2.8 0 0 1 2.8-2.8c.8 0 1.5.3 2 .8.5.6.8 1.2.8 2s-.3 1.5-.8 2-1.2.8-2 .8Zm20 31.4c-2.3 0-4.2-.5-5.8-1.6a10.5 10.5 0 0 1-3.7-4.7c-.9-2-1.3-4.5-1.3-7.3s.4-5.3 1.3-7.3 2.1-3.6 3.8-4.7c1.6-1.1 3.6-1.7 5.9-1.7 2.2 0 4.1.5 5.7 1.6 1.6 1 2.7 2.5 3.4 4.5l-4.2 1.5c-.4-1.1-1-2-1.9-2.5a5 5 0 0 0-3-1c-2 0-3.7.9-4.8 2.5-1.1 1.6-1.7 4-1.7 7.1 0 3 .6 5.4 1.7 7a5.4 5.4 0 0 0 4.7 2.4c1.3 0 2.4-.3 3.3-1 1-.7 1.6-1.6 2-2.8l4.1 1.3a8.8 8.8 0 0 1-3.4 5 10.4 10.4 0 0 1-6.1 1.7Zm23.3 0c-2.9 0-5-.8-6.7-2.3a8.5 8.5 0 0 1-2.4-6.5 7.9 7.9 0 0 1 4.6-7.5 14 14 0 0 1 11.9.6v-1.8c0-2-.5-3.5-1.4-4.5-1-1-2.4-1.4-4.3-1.4a12 12 0 0 0-3.9.7c-1.3.5-2.6 1-3.7 1.9l-1.3-3.7a17.6 17.6 0 0 1 9.4-2.8c3.1 0 5.5.8 7 2.4 1.6 1.6 2.3 3.9 2.3 7V329h-4.2v-2.4a10.5 10.5 0 0 1-7.4 3Zm.6-3.9a8 8 0 0 0 3.6-.9 10 10 0 0 0 3.1-2.5v-4.5c-.8-.5-1.8-1-3-1.2-1-.4-2-.5-3-.5-2 0-3.5.4-4.6 1.3-1 .8-1.6 2-1.6 3.5s.5 2.7 1.4 3.5a6 6 0 0 0 4.1 1.3Zm19 3.3v-34.7l4.3-2.1V329h-4.4Zm13.3 0v-34.7l4.4-2.1V329h-4.4ZM310 339l4-10.6-9.6-25.4h4.4l6.5 17.8a17 17 0 0 1 .8 2.5 65.7 65.7 0 0 1 .8-2.5l6.6-17.8h4.5l-13.5 36H310Zm46-9.3a10.7 10.7 0 0 1-10.2-6.6c-1-2-1.4-4.4-1.4-7 0-3 .5-5.4 1.5-7.4s2.3-3.6 4-4.7c1.8-1 3.8-1.6 6-1.6 2 0 3.8.5 5.5 1.4 1.6.8 2.9 2.2 3.9 4 1 1.8 1.5 4.2 1.5 7a23.3 23.3 0 0 1-.2 3H349c.1 1.7.5 3 1.1 4.2a7.4 7.4 0 0 0 2.4 2.8 6 6 0 0 0 3.6 1 7.9 7.9 0 0 0 5.7-2.4l2.6 3a12 12 0 0 1-8.4 3.3Zm-7.1-15.7h13.4a10 10 0 0 0-.8-4 6 6 0 0 0-2-2.7 6 6 0 0 0-3.5-1 7 7 0 0 0-4.9 1.8c-1.3 1.3-2 3.2-2.2 5.9Zm25 15.1v-26h4.4v2.6a7.6 7.6 0 0 1 6.8-3.3c3.1 0 5.5 1 7 3 1.5 1.8 2.3 4.7 2.3 8.7v15h-4.5v-15.8c0-2.2-.4-3.8-1.4-5a5 5 0 0 0-4.2-1.8c-2 0-3.5.6-4.5 1.7s-1.5 2.8-1.5 5V329H374Zm28.7 0v-34.8l4.5-2v13.4a8 8 0 0 1 6.7-3.3c2.3 0 4 .5 5.4 1.4a8 8 0 0 1 3 4c.6 1.8 1 3.9 1 6.3v15h-4.5v-15.8a9 9 0 0 0-1.4-5c-.9-1.2-2.3-1.8-4.2-1.8-2 0-3.5.6-4.5 1.7s-1.5 2.8-1.5 5V329h-4.5Zm36.6.6c-2.9 0-5-.8-6.7-2.3a8.5 8.5 0 0 1-2.4-6.5 7.8 7.8 0 0 1 4.6-7.5 14 14 0 0 1 11.9.6v-1.8c0-2-.5-3.5-1.4-4.5-1-1-2.4-1.4-4.3-1.4a12 12 0 0 0-3.9.7c-1.3.5-2.6 1-3.7 1.9l-1.3-3.7a17.6 17.6 0 0 1 9.4-2.8c3.1 0 5.5.8 7 2.4 1.6 1.6 2.3 3.9 2.3 7V329h-4.1v-2.4c-1 1-2.2 1.7-3.5 2.2-1.3.6-2.6.8-4 .8Zm.6-3.9a8 8 0 0 0 3.6-.9 10 10 0 0 0 3.2-2.5v-4.5c-1-.5-1.9-1-3-1.2a9.3 9.3 0 0 0-3.2-.5c-1.9 0-3.4.4-4.5 1.3-1 .8-1.6 2-1.6 3.5s.5 2.7 1.4 3.5a6 6 0 0 0 4.1 1.3Zm19.3 3.3v-26h4.4v2.6c.8-1.1 1.8-2 3-2.5 1-.5 2.3-.8 3.8-.8 3.1 0 5.5 1 7 3 1.5 1.8 2.3 4.7 2.3 8.7v15h-4.4v-15.8c0-2.2-.5-3.8-1.5-5a5 5 0 0 0-4.1-1.8c-2 0-3.5.6-4.6 1.7-1 1.1-1.5 2.8-1.5 5V329h-4.4Zm38.8.6c-2.3 0-4.2-.5-5.8-1.6a10.5 10.5 0 0 1-3.7-4.7c-1-2-1.3-4.5-1.3-7.3s.4-5.3 1.3-7.3 2.1-3.6 3.8-4.7c1.6-1.1 3.6-1.7 5.9-1.7 2.2 0 4.1.5 5.7 1.6 1.5 1 2.7 2.5 3.4 4.5L503 310c-.4-1.1-1-2-1.9-2.5a5 5 0 0 0-3-1c-2 0-3.7.9-4.8 2.5-1.1 1.6-1.7 4-1.7 7.1 0 3 .5 5.4 1.6 7a5.4 5.4 0 0 0 4.8 2.4c1.3 0 2.4-.3 3.3-1 1-.7 1.6-1.6 2-2.8l4.1 1.3a8.8 8.8 0 0 1-3.4 5 10.4 10.4 0 0 1-6.1 1.7Zm26.6 0a10.7 10.7 0 0 1-10.1-6.6c-1-2-1.4-4.4-1.4-7 0-3 .4-5.4 1.4-7.4 1-2 2.3-3.6 4-4.7 1.8-1 3.8-1.6 6.1-1.6a10.9 10.9 0 0 1 9.4 5.4c.9 1.8 1.4 4.2 1.4 7a23.3 23.3 0 0 1-.2 3h-17.6c.2 1.7.6 3 1.2 4.2a7.4 7.4 0 0 0 2.4 2.8 6 6 0 0 0 3.5 1 7.9 7.9 0 0 0 5.7-2.4l2.6 3a12 12 0 0 1-8.4 3.3Zm-7-15.7h13.3a10 10 0 0 0-.7-4 6 6 0 0 0-2.2-2.7c-.9-.7-2-1-3.4-1a7 7 0 0 0-4.8 1.8c-1.4 1.3-2.1 3.2-2.3 5.9Zm34.6 15.7c-3.4 0-6-1.2-8-3.7a16.5 16.5 0 0 1-2.8-10c0-2.7.4-5.2 1.3-7.2s2.1-3.6 3.7-4.7a10 10 0 0 1 5.8-1.7c2.5 0 4.7.8 6.5 2.5v-10.5l4.5-2.1V329h-4.5v-2a8.8 8.8 0 0 1-6.5 2.6Zm.6-4.1c1.2 0 2.3-.3 3.4-1a6 6 0 0 0 2.5-2.5v-12.3a7 7 0 0 0-5.9-3.3 6 6 0 0 0-5.1 2.5 12 12 0 0 0-1.8 7c0 2 .3 3.6.8 5a8 8 0 0 0 2.5 3.4c1 .8 2.2 1.2 3.6 1.2Zm35.1 3.5-6.7-26h4.4l4 17.4a21.4 21.4 0 0 1 .6 2.8 21.8 21.8 0 0 1 .6-2.8l5-17.5h3.6l4.9 17.5a98 98 0 0 1 .7 2.9 105.6 105.6 0 0 0 .6-2.9l3.9-17.5h4.4l-6.8 26h-4l-4.7-15.5a729.8 729.8 0 0 1-1-3.4 51.1 51.1 0 0 1-1 3.4l-4.6 15.5h-4Zm41.7.6a10.7 10.7 0 0 1-10.2-6.6c-1-2-1.4-4.4-1.4-7 0-3 .5-5.4 1.4-7.4 1-2 2.4-3.6 4.1-4.7a12 12 0 0 1 6-1.6c2 0 3.8.5 5.4 1.4a9 9 0 0 1 4 4c1 1.8 1.4 4.2 1.4 7a23.3 23.3 0 0 1-.1 3h-17.7c.2 1.7.6 3 1.2 4.2a7.4 7.4 0 0 0 2.4 2.8 6 6 0 0 0 3.6 1 7.9 7.9 0 0 0 5.7-2.4l2.6 3a12 12 0 0 1-8.4 3.3Zm-7.1-15.7h13.3a10 10 0 0 0-.7-4 6 6 0 0 0-2.1-2.7c-1-.7-2-1-3.4-1a7 7 0 0 0-4.9 1.8c-1.3 1.3-2 3.2-2.2 5.9Zm35.6 15.7c-1.3 0-2.5-.2-3.5-.7-1-.4-2.1-1.2-3.2-2.1v2.2h-4.4v-34.7l4.4-2.1v13c.8-1 1.8-1.6 3-2.1 1-.5 2.3-.8 3.5-.8 2.2 0 4.2.6 5.8 1.7 1.6 1 2.8 2.7 3.7 4.7.9 2 1.3 4.5 1.3 7.2 0 4.4-.9 7.7-2.8 10.1a9.4 9.4 0 0 1-7.8 3.6Zm-.6-4.1c2.1 0 3.8-.8 5-2.5 1.1-1.6 1.7-4 1.7-7 0-3.2-.6-5.5-1.7-7.1a5.7 5.7 0 0 0-5-2.5c-1.2 0-2.4.3-3.5 1a7 7 0 0 0-2.6 2.5v12c.6 1.1 1.5 2 2.6 2.6a6 6 0 0 0 3.5 1Zm37.7 4.1c-2.9 0-5-.8-6.7-2.3a8.5 8.5 0 0 1-2.4-6.5 7.9 7.9 0 0 1 4.6-7.5 14 14 0 0 1 11.9.6v-1.8c0-2-.5-3.5-1.4-4.5-1-1-2.4-1.4-4.3-1.4a12 12 0 0 0-3.9.7c-1.3.5-2.6 1-3.7 1.9l-1.3-3.7a17.6 17.6 0 0 1 9.4-2.8c3.1 0 5.5.8 7 2.4 1.6 1.6 2.3 3.9 2.3 7V329h-4.2v-2.4a10.5 10.5 0 0 1-7.4 3Zm.6-3.9a8 8 0 0 0 3.6-.9 10 10 0 0 0 3.1-2.5v-4.5c-.8-.5-1.8-1-3-1.2-1-.4-2-.5-3-.5-2 0-3.5.4-4.6 1.3-1 .8-1.6 2-1.6 3.5s.4 2.7 1.4 3.5a6 6 0 0 0 4.1 1.3Zm19.3 13.7V303h4.4v2.2a9.1 9.1 0 0 1 6.7-2.8 9.8 9.8 0 0 1 9.4 6.4c1 2 1.4 4.5 1.4 7.2a18 18 0 0 1-1.4 7.3c-.8 2-2 3.6-3.7 4.8a9.7 9.7 0 0 1-5.7 1.6 9 9 0 0 1-3.7-.7 9.3 9.3 0 0 1-3-2.3v10.7l-4.4 2Zm10.6-14c2.1 0 3.8-.7 5-2.4a12 12 0 0 0 1.7-7c0-3-.6-5.3-1.8-7a5.8 5.8 0 0 0-5-2.6 7 7 0 0 0-6.1 3.5v12c1 1.2 1.9 2.1 3 2.7 1 .6 2 .9 3.2.9Zm18 14V303h4.4v2.2a9.1 9.1 0 0 1 6.7-2.8 9.8 9.8 0 0 1 9.4 6.4c1 2 1.4 4.5 1.4 7.2a18 18 0 0 1-1.4 7.3c-.8 2-2.1 3.6-3.7 4.8a9.7 9.7 0 0 1-5.7 1.6 9 9 0 0 1-3.7-.7 9.3 9.3 0 0 1-3-2.3v10.7l-4.4 2Zm10.5-14c2.2 0 4-.7 5-2.4a12 12 0 0 0 1.8-7c0-3-.6-5.3-1.8-7a5.8 5.8 0 0 0-5-2.6 7 7 0 0 0-6.1 3.5v12a12 12 0 0 0 2.9 2.7c1 .6 2.1.9 3.2.9Zm25.5 4.2a12.4 12.4 0 0 1-9.4-4.4l3.1-2.7c1 1 2 1.8 3.1 2.3a7.6 7.6 0 0 0 6.9 0 3 3 0 0 0 1.3-2.5 3 3 0 0 0-.6-1.8c-.4-.6-1-1-1.9-1.6-.9-.5-2-1-3.5-1.5a18 18 0 0 1-6.2-3.5 6.4 6.4 0 0 1-1.9-4.7 6 6 0 0 1 2.5-5 10 10 0 0 1 6.3-1.9c1.8 0 3.4.4 5 1a12 12 0 0 1 3.8 3l-3 2.5a7.6 7.6 0 0 0-5.8-2.5c-1.4 0-2.4.3-3.2.8-.8.5-1.2 1.2-1.2 2.1 0 .9.5 1.6 1.3 2.3a24 24 0 0 0 4.8 2.3c1.9.6 3.4 1.4 4.5 2.2 1.2.8 2 1.7 2.6 2.7.5 1 .8 2.2.8 3.5 0 2.3-.8 4.1-2.5 5.4-1.6 1.4-3.9 2-6.8 2Z"
  />
  <path
    class="text"
    fill="#4A4A55"
    d="M42.2 258c-9.4.2-18.7-2.4-26.6-7.6A38.6 38.6 0 0 1 0 229.8l16.2-6a30 30 0 0 0 10.6 12.9 27.9 27.9 0 0 0 16 4.7c5.6.3 11-1.3 15.4-4.6a16 16 0 0 0 5.7-13.3c0-2.3-.5-4.6-1.6-6.7a20 20 0 0 0-3.5-5 24 24 0 0 0-6.2-4.1 90.9 90.9 0 0 0-14.9-6l-9.9-3.7a71 71 0 0 1-8.7-4.4 32 32 0 0 1-8-6.1 29.7 29.7 0 0 1-6.3-25.6 28.7 28.7 0 0 1 9.1-15.1 39.3 39.3 0 0 1 27-8.8c9.5 0 17.3 2.1 23.4 6.3 6 4 10.3 9.9 12.3 16.7l-15.9 5.3a18.5 18.5 0 0 0-7.7-8.5 25.8 25.8 0 0 0-13.4-3.2c-4.7-.3-9.2 1-13 3.6a12.2 12.2 0 0 0-4.8 10.3 10.7 10.7 0 0 0 3.7 8 25 25 0 0 0 7.6 5 194 194 0 0 0 12 4.6c3.4 1.2 5.8 2 7.4 2.7a113.7 113.7 0 0 1 14.2 7c2 1.4 4 3 5.8 4.7a24.7 24.7 0 0 1 8 13.5c.9 3 1.3 6.2 1.3 9.3 0 10.9-3.7 19.4-11.1 25.5a43.1 43.1 0 0 1-28.5 9.2Zm106-2-39.6-116H127l26.3 80.9c1.5 4.3 2.7 8.7 3.7 13.2 1-4.5 2.2-8.9 3.6-13.2l26-81H205L165.5 256h-17.2Zm92 0V140H312v16.2h-54.6v31.9h35.2v16.2h-35.2v35.5h58.2V256h-75.5Zm119.3 0V140h17.2v99.4h56.6V256h-73.8Zm138.7-99.4V256H481v-99.4h-32.8V140h82.7v16.6h-32.7Zm68.3 99.4V140h71.9v16.2h-54.7v31.9H619v16.2h-35.3v35.5H642V256h-75.5Z"
  />
</svg>
